<svg width="84" height="84" viewBox="0 0 84 84" fill="none" xmlns="http://www.w3.org/2000/svg">
<path d="M82.3594 33.8789H68.9063V30.4058C68.9063 29.5001 68.1713 28.7651 67.2657 28.7651H31.8281C30.9225 28.7651 30.1875 29.5001 30.1875 30.4058C30.1875 31.3114 30.9225 32.0464 31.8281 32.0464H65.625V44.625C65.625 55.6746 59.7254 65.9432 50.1999 71.5312H18.7064C9.18094 65.9432 3.28125 55.6746 3.28125 44.625V32.0464H14.2734C15.1791 32.0464 15.9141 31.3114 15.9141 30.4058C15.9141 29.5001 15.1791 28.7651 14.2734 28.7651H1.64063C0.735001 28.7651 0 29.5001 0 30.4058V44.625C0 50.8266 1.66688 56.9067 4.82016 62.2092C6.94641 65.7857 9.70594 68.9423 12.938 71.5312H1.64063C0.735001 71.5312 0 72.2662 0 73.1718C0 79.142 4.85789 83.9999 10.8281 83.9999H62.0157C67.9859 83.9999 72.8438 79.142 72.8438 73.1718C72.8438 72.2662 72.1088 71.5312 71.2032 71.5312H55.9683C58.9428 69.149 61.5153 66.2845 63.5644 63.0541H68.1959C76.9109 63.0541 84.0001 55.965 84.0001 47.25V35.5196C84.0001 34.6139 83.2651 33.8789 82.3594 33.8789ZM62.0157 80.7186H10.8281C7.23024 80.7186 4.21149 78.1872 3.46172 74.8124H18.2667H50.6396H69.3821C68.6323 78.1872 65.6136 80.7186 62.0157 80.7186ZM68.9063 43.7227H74.1563V47.25C74.1563 50.5362 71.4821 53.2104 68.1959 53.2104H67.8235C68.5388 50.4197 68.9063 47.5355 68.9063 44.625V43.7227ZM80.7188 47.25C80.7188 54.1554 75.1013 59.7728 68.1959 59.7728H65.4036C65.9269 58.7032 66.3961 57.6072 66.8047 56.4916H68.1959C73.2917 56.4916 77.4376 52.3458 77.4376 47.25V42.082C77.4376 41.1764 76.7026 40.4414 75.7969 40.4414H68.9063V37.1602H80.7188V47.25Z" fill="#FF699F"/>
<path d="M33.4523 11.1232C35.0896 13.1789 35.0929 16.0516 33.4588 18.1106L32.5844 19.2131C32.0217 19.9235 32.1398 20.9554 32.8502 21.5181C33.152 21.7577 33.5113 21.8741 33.869 21.8741C34.353 21.8741 34.832 21.6609 35.1553 21.254L36.0297 20.1515C38.6186 16.89 38.6153 12.3372 36.0199 9.07899L35.1667 8.00766C33.9133 6.43431 33.9117 4.23589 35.1618 2.6609C35.7246 1.95051 35.6064 0.918564 34.896 0.355833C34.1856 -0.206898 33.1537 -0.088774 32.591 0.621612C30.3859 3.40082 30.3892 7.27923 32.5992 10.0535L33.4523 11.1232Z" fill="#FF699F"/>
<path d="M42.5465 14.8127C44.1839 16.8685 44.1855 19.7429 42.5531 21.8019L41.6786 22.9044C41.1159 23.6148 41.234 24.6468 41.9444 25.2095C42.2463 25.4491 42.6056 25.5656 42.9633 25.5656C43.4473 25.5656 43.9263 25.3523 44.2495 24.9454L45.124 23.8429C47.7129 20.5812 47.7096 16.0284 45.1141 12.7701L44.261 11.6988C43.0076 10.1254 43.0059 7.9269 44.2561 6.35187C44.8188 5.64147 44.7007 4.6095 43.9903 4.04676C43.2799 3.48402 42.2479 3.60214 41.6852 4.31254C39.4802 7.09181 39.4835 10.9703 41.6934 13.7447L42.5465 14.8127Z" fill="#FF699F"/>
<path d="M24.36 14.813C25.9973 16.8687 25.9989 19.743 24.3665 21.8003L23.4921 22.9028C22.9294 23.6132 23.0475 24.6451 23.7579 25.2078C24.0597 25.4474 24.419 25.5638 24.7767 25.5638C25.2607 25.5638 25.7397 25.3506 26.0629 24.9437L26.9374 23.8412C29.5263 20.5797 29.523 16.0271 26.9275 12.7688L26.0744 11.6975C24.821 10.1242 24.8193 7.92578 26.0695 6.35081C26.6322 5.64043 26.5141 4.6085 25.8037 4.04577C25.0933 3.48305 24.0614 3.60117 23.4987 4.31155C21.2937 7.09072 21.297 10.9691 23.5069 13.7433L24.36 14.813Z" fill="#FF699F"/>
<path d="M23.4956 28.7651C23.0641 28.7651 22.6408 28.9407 22.3357 29.2458C22.0305 29.5526 21.855 29.9743 21.855 30.4058C21.855 30.8372 22.0305 31.2605 22.3357 31.5673C22.6408 31.8725 23.0641 32.0464 23.4956 32.0464C23.9271 32.0464 24.3504 31.8725 24.6555 31.5673C24.9623 31.2605 25.1362 30.8389 25.1362 30.4058C25.1362 29.9743 24.9623 29.551 24.6555 29.2458C24.3504 28.9407 23.9271 28.7651 23.4956 28.7651Z" fill="#FF699F"/>
<path d="M53.304 63.3548C58.2144 58.4 61.0313 51.5732 61.0313 44.625C61.0313 43.7194 60.2963 42.9844 59.3907 42.9844C58.4851 42.9844 57.7501 43.7194 57.7501 44.625C57.7501 50.7152 55.2793 56.7003 50.9727 61.0448C50.3345 61.6879 50.3394 62.7264 50.9825 63.3647C51.3024 63.6813 51.7191 63.8405 52.1375 63.8405C52.5608 63.8405 52.9824 63.678 53.304 63.3548Z" fill="#FF699F"/>
<path d="M46.7511 67.9666C47.0234 67.9666 47.3007 67.8977 47.555 67.7549L47.5927 67.7336C48.3819 67.289 48.6608 66.2882 48.2162 65.4991C47.7716 64.7099 46.7708 64.431 45.9816 64.8756L45.9439 64.897C45.1547 65.3416 44.8758 66.3423 45.3205 67.1315C45.6223 67.6663 46.1769 67.9666 46.7511 67.9666Z" fill="#FF699F"/>
</svg>
