<svg width="152" height="19" fill="none" xmlns="http://www.w3.org/2000/svg"><path d="M20.538 2.4L16.416 15h-3.132l-2.772-8.532L7.65 15H4.536L.396 2.4H3.42l2.844 8.856L9.234 2.4h2.7l2.88 8.928L17.748 2.4h2.79zm10.195 7.794c0 .036-.018.288-.054.756h-7.326c.132.6.444 1.074.936 1.422.492.348 1.104.522 1.836.522.504 0 .948-.072 1.332-.216a3.345 3.345 0 001.098-.72l1.494 1.62c-.912 1.044-2.244 1.566-3.996 1.566-1.092 0-2.058-.21-2.898-.63-.84-.432-1.488-1.026-1.944-1.782-.456-.756-.684-1.614-.684-2.574 0-.948.222-1.8.666-2.556a4.726 4.726 0 011.854-1.782c.792-.432 1.674-.648 2.646-.648.948 0 1.806.204 2.574.612a4.393 4.393 0 011.8 1.764c.444.756.666 1.638.666 2.646zm-5.022-2.898c-.636 0-1.17.18-1.602.54-.432.36-.696.852-.792 1.476h4.77c-.096-.612-.36-1.098-.792-1.458-.432-.372-.96-.558-1.584-.558zm16.756-5.652V15h-2.682v-1.116c-.696.84-1.704 1.26-3.024 1.26-.912 0-1.74-.204-2.484-.612a4.399 4.399 0 01-1.728-1.746c-.42-.756-.63-1.632-.63-2.628 0-.996.21-1.872.63-2.628a4.399 4.399 0 011.728-1.746c.744-.408 1.572-.612 2.484-.612 1.236 0 2.202.39 2.898 1.17V1.644h2.808zm-5.22 11.196c.708 0 1.296-.24 1.764-.72.468-.492.702-1.146.702-1.962 0-.816-.234-1.464-.702-1.944-.468-.492-1.056-.738-1.764-.738-.72 0-1.314.246-1.782.738-.468.48-.702 1.128-.702 1.944 0 .816.234 1.47.702 1.962.468.48 1.062.72 1.782.72zM54.929 1.644V15h-2.681v-1.116c-.697.84-1.704 1.26-3.024 1.26-.912 0-1.74-.204-2.484-.612a4.399 4.399 0 01-1.729-1.746c-.42-.756-.63-1.632-.63-2.628 0-.996.21-1.872.63-2.628a4.399 4.399 0 011.728-1.746c.745-.408 1.573-.612 2.485-.612 1.236 0 2.202.39 2.898 1.17V1.644h2.807zM49.71 12.84c.708 0 1.296-.24 1.764-.72.468-.492.703-1.146.703-1.962 0-.816-.235-1.464-.703-1.944-.468-.492-1.056-.738-1.764-.738-.72 0-1.314.246-1.782.738-.468.48-.702 1.128-.702 1.944 0 .816.234 1.47.703 1.962.468.48 1.062.72 1.782.72zm7.82-7.524h2.807V15h-2.808V5.316zm1.403-1.35c-.516 0-.936-.15-1.26-.45a1.46 1.46 0 01-.486-1.116c0-.444.162-.816.486-1.116.324-.3.744-.45 1.26-.45s.936.144 1.26.432c.324.288.486.648.486 1.08 0 .468-.162.858-.486 1.17-.324.3-.744.45-1.26.45zm9.897 1.206c1.2 0 2.166.36 2.898 1.08.743.72 1.115 1.788 1.115 3.204V15h-2.808V9.888c0-.768-.168-1.338-.504-1.71-.335-.384-.822-.576-1.457-.576-.708 0-1.272.222-1.692.666-.42.432-.63 1.08-.63 1.944V15h-2.809V5.316h2.682V6.45c.373-.408.835-.72 1.386-.936a4.717 4.717 0 011.819-.342zm16.654.144v8.064c0 1.776-.462 3.096-1.386 3.96-.924.864-2.274 1.296-4.05 1.296a10.13 10.13 0 01-2.664-.342c-.84-.228-1.536-.558-2.088-.99l1.116-2.016c.408.336.924.6 1.548.792a5.994 5.994 0 001.872.306c.972 0 1.686-.222 2.142-.666.468-.432.702-1.092.702-1.98v-.414c-.732.804-1.752 1.206-3.06 1.206a5.258 5.258 0 01-2.448-.576 4.54 4.54 0 01-1.746-1.656c-.432-.708-.648-1.524-.648-2.448 0-.924.216-1.74.648-2.448a4.41 4.41 0 011.746-1.638 5.128 5.128 0 012.448-.594c1.404 0 2.472.462 3.204 1.386V5.316h2.664zm-5.31 6.912c.744 0 1.35-.216 1.818-.648.48-.444.72-1.02.72-1.728s-.24-1.278-.72-1.71c-.468-.444-1.074-.666-1.818-.666s-1.356.222-1.836.666c-.48.432-.72 1.002-.72 1.71s.24 1.284.72 1.728c.48.432 1.092.648 1.836.648zM93.393 2.4h5.723c1.368 0 2.574.264 3.618.792 1.056.516 1.872 1.248 2.448 2.196.588.948.882 2.052.882 3.312 0 1.26-.294 2.364-.882 3.312-.576.948-1.392 1.686-2.448 2.214-1.044.516-2.25.774-3.618.774h-5.724V2.4zm5.58 10.206c1.259 0 2.261-.348 3.005-1.044.756-.708 1.134-1.662 1.134-2.862 0-1.2-.378-2.148-1.134-2.844-.744-.708-1.746-1.062-3.006-1.062h-2.664v7.812h2.664zm12.999-7.434c1.5 0 2.652.36 3.456 1.08.804.708 1.206 1.782 1.206 3.222V15h-2.628v-1.206c-.528.9-1.512 1.35-2.952 1.35-.744 0-1.392-.126-1.944-.378-.54-.252-.954-.6-1.242-1.044a2.717 2.717 0 01-.432-1.512c0-.9.336-1.608 1.008-2.124.684-.516 1.734-.774 3.15-.774h2.232c0-.612-.186-1.08-.558-1.404-.372-.336-.93-.504-1.674-.504a4.81 4.81 0 00-1.53.252 3.904 3.904 0 00-1.26.648l-1.008-1.962c.528-.372 1.158-.66 1.89-.864a8.606 8.606 0 012.286-.306zm-.216 8.082c.48 0 .906-.108 1.278-.324.372-.228.636-.558.792-.99v-.99H111.9c-1.152 0-1.728.378-1.728 1.134 0 .36.138.648.414.864.288.204.678.306 1.17.306zm13.305-8.082c1.2 0 2.166.36 2.898 1.08.744.72 1.116 1.788 1.116 3.204V15h-2.808V9.888c0-.768-.168-1.338-.504-1.71-.336-.384-.822-.576-1.458-.576-.708 0-1.272.222-1.692.666-.42.432-.63 1.08-.63 1.944V15h-2.808V5.316h2.682V6.45c.372-.408.834-.72 1.386-.936a4.717 4.717 0 011.818-.342zm11.345 9.972c-1.032 0-1.962-.21-2.79-.63a4.929 4.929 0 01-1.926-1.782c-.456-.756-.684-1.614-.684-2.574 0-.96.228-1.818.684-2.574a4.8 4.8 0 011.926-1.764c.828-.432 1.758-.648 2.79-.648 1.02 0 1.908.216 2.664.648a3.734 3.734 0 011.674 1.818l-2.178 1.17c-.504-.888-1.23-1.332-2.178-1.332-.732 0-1.338.24-1.818.72s-.72 1.134-.72 1.962c0 .828.24 1.482.72 1.962s1.086.72 1.818.72c.96 0 1.686-.444 2.178-1.332l2.178 1.188c-.348.768-.906 1.368-1.674 1.8-.756.432-1.644.648-2.664.648zm15.317-4.95c0 .036-.018.288-.054.756h-7.326c.132.6.444 1.074.936 1.422.492.348 1.104.522 1.836.522.504 0 .948-.072 1.332-.216a3.345 3.345 0 001.098-.72l1.494 1.62c-.912 1.044-2.244 1.566-3.996 1.566-1.092 0-2.058-.21-2.898-.63-.84-.432-1.488-1.026-1.944-1.782-.456-.756-.684-1.614-.684-2.574 0-.948.222-1.8.666-2.556a4.726 4.726 0 011.854-1.782c.792-.432 1.674-.648 2.646-.648.948 0 1.806.204 2.574.612a4.393 4.393 0 011.8 1.764c.444.756.666 1.638.666 2.646zm-5.022-2.898c-.636 0-1.17.18-1.602.54-.432.36-.696.852-.792 1.476h4.77c-.096-.612-.36-1.098-.792-1.458-.432-.372-.96-.558-1.584-.558z" fill="#fff"/></svg>